<?xml version="1.0" encoding="utf-8"?>
<svg xmlns="http://www.w3.org/2000/svg" 
     xmlns:xlink="http://www.w3.org/1999/xlink" 
     xmlns:demo="http://www.sun.com/svg/demo"
     id="root"
     width="100%" height="100%" viewBox="0 0 240 320" 
     xml:space="preserve"
     preserveAspectRatio="none"
     font-family2="Aharoni">
    <g id="Calque_1">
         <defs>
            <animateTransform id="processingIndicatorAnim" xlink:href="#processingIndicator" attributeName="transform" type="rotate"
                            values="0;360" begin="0s" dur="1s" repeatDur="indefinite"/>
         </defs>
        
        <rect width="240" height="320" fill="white" />        
        <g  transform="translate(120,65)">
        <g id="processingIndicator">
                        <g transform="translate(-120,-65)">
            <path fill="rgb(53,85,107)" d="M118,40v10c0,1.104,0.896,2,2,2s2-0.896,2-2V40c0-1.104-0.896-2-2-2S118,38.896,118,40z"/>
            <path fill="rgb(163,184,203)" d="M118,80v10c0,1.104,0.896,2,2,2s2-0.896,2-2V80c0-1.104-0.896-2-2-2S118,78.896,118,80z"/>
            <path fill="rgb(255,199,38)" d="M95,63c-1.104,0-2,0.896-2,2s0.896,2,2,2h10c1.104,0,2-0.896,2-2s-0.896-2-2-2H95z"/>
            <path fill="rgb(83,130,161)" d="M135,63c-1.104,0-2,0.896-2,2s0.896,2,2,2h10c1.104,0,2-0.896,2-2s-0.896-2-2-2H135z"/>
            <path fill="rgb(53,85,107)" d="M100.908,45.909c-0.781,0.781-0.781,2.047,0,2.828l7.072,7.072c0.781,0.781,2.047,0.781,2.828,0
                c0.781-0.781,0.781-2.047,0-2.828l-7.072-7.072C102.956,45.127,101.689,45.127,100.908,45.909z"/>
            <path fill="rgb(163,184,203)" d="M129.191,74.191c-0.781,0.781-0.781,2.047,0,2.828l7.07,7.07c0.781,0.781,2.047,0.781,2.828,0
                c0.781-0.781,0.781-2.047,0-2.828l-7.07-7.07C131.238,73.41,129.973,73.41,129.191,74.191z"/>
            <path fill="rgb(255,199,38)" d="M107.98,74.191l-7.072,7.07c-0.781,0.781-0.781,2.047,0,2.829c0.781,0.781,2.047,0.781,2.829,0
                l7.072-7.07c0.781-0.781,0.781-2.047,0-2.829C110.028,73.41,108.762,73.41,107.98,74.191z"/>
            <path fill="rgb(83,130,161)" d="M136.262,45.909l-7.07,7.072c-0.781,0.781-0.781,2.047,0,2.829c0.781,0.781,2.048,0.781,2.828,0
                l7.07-7.072c0.781-0.781,0.781-2.047,0-2.829C138.309,45.127,137.042,45.127,136.262,45.909z"/>
            <path fill="rgb(53,85,107)" d="M109.668,40.056c-1.021,0.422-1.505,1.592-1.083,2.613l3.826,9.239c0.422,1.021,1.592,1.505,2.613,1.083
                c1.021-0.422,1.505-1.592,1.083-2.613l-3.826-9.239C111.859,40.118,110.689,39.633,109.668,40.056z"/>
            <path fill="rgb(163,184,203)" d="M124.975,77.01c-1.021,0.422-1.505,1.592-1.082,2.613l3.826,9.238c0.423,1.021,1.593,1.505,2.613,1.083
                c1.021-0.422,1.505-1.592,1.082-2.613l-3.826-9.238C127.165,77.072,125.995,76.587,124.975,77.01z"/>
            <path fill="rgb(255,199,38)" d="M105.377,68.893l-9.238,3.826c-1.021,0.422-1.505,1.592-1.083,2.613c0.422,1.021,1.592,1.505,2.613,1.083
                l9.238-3.826c1.021-0.422,1.505-1.592,1.083-2.613C107.568,68.955,106.398,68.47,105.377,68.893z"/>
            <path fill="rgb(83,130,161)" d="M142.33,53.586l-9.238,3.826c-1.021,0.422-1.505,1.592-1.082,2.613s1.593,1.505,2.613,1.083l9.238-3.826
                c1.021-0.422,1.505-1.592,1.082-2.613S143.351,53.163,142.33,53.586z"/>
            <path fill="rgb(53,85,107)" d="M95.057,54.668c-0.423,1.021,0.062,2.19,1.083,2.613l9.238,3.826c1.021,0.423,2.19-0.062,2.613-1.083
                c0.423-1.021-0.062-2.19-1.083-2.613l-9.238-3.826C96.649,53.163,95.479,53.648,95.057,54.668z"/>
            <path fill="rgb(163,184,203)" d="M132.01,69.975c-0.423,1.021,0.062,2.19,1.082,2.613l9.238,3.826c1.021,0.423,2.191-0.062,2.613-1.083
                c0.423-1.021-0.062-2.19-1.082-2.613l-9.238-3.826C133.603,68.47,132.432,68.955,132.01,69.975z"/>
            <path fill="rgb(255,199,38)" d="M112.412,78.092l-3.828,9.238c-0.423,1.021,0.062,2.189,1.082,2.613c1.021,0.423,2.189-0.062,2.613-1.082
                l3.828-9.238c0.423-1.021-0.062-2.189-1.082-2.613C114.005,76.587,112.836,77.071,112.412,78.092z"/>
            <path fill="rgb(83,130,161)" d="M127.719,41.139l-3.826,9.239c-0.423,1.021,0.062,2.191,1.082,2.613c1.021,0.423,2.191-0.061,2.613-1.083
                l3.826-9.239c0.423-1.021-0.062-2.191-1.082-2.613C129.312,39.633,128.141,40.117,127.719,41.139z"/>
                    </g>
        </g>
                </g>

        <g id="loadProgressBar">
            <text x="120" y="250" font-family="'ArialNarrow'" font-size="12" text-anchor="middle" fill="rgb(53,85,107)">loading application...</text>
            <text id="loadProgressBar.text" x="120" y="280" font-family="'ArialNarrow'" font-size="12" text-anchor="middle"  fill="rgb(53,85,107)">0%</text>
            <path id="loadProgressBar.bkg" fill="rgb(163,184,203)" d="M190,265H50v-5h140V265z"/>
            <path id="loadProgressBar.progress" fill="rgb(83,130,161)" d="M100,265H50v-5h50V265z"/>
        </g>
    </g>
</svg>
