<?xml version="1.0" encoding="UTF-8"?>
<!DOCTYPE svg PUBLIC "-//W3C//DTD SVG 1.1 Tiny//EN" "http://www.w3.org/Graphics/SVG/1.1/DTD/svg11-tiny.dtd">
<svg version="1.1" 
     baseProfile="tiny" 
     xmlns="http://www.w3.org/2000/svg" 
     xmlns:xlink="http://www.w3.org/1999/xlink"  
     id="svg-root"
     width="225.765" height="177.346" viewBox="0 0 225.765 177.346">
	<g id="Calque_1">
		<g id="body">
			<g>
				<path d="M169.245,113.537c3.89-2.37,6.63-6.41,6.409-10.01l20.811-23.47c3.311,0.29,6.551-1.011,8.131-0.931
					c3.17,0.28,2.959-0.51,6.479,0.5c3.53,1.08,2.96,1.66,4.899,1.939c2.021,0.291,4.971-1.08,5.4-2.37
					c1.15-3.53,0.58-2.38-0.5-4.32c2.73,0,5.4-2.81,4.891-5.76c-0.57-3.03-1.65-4.39-4.25-5.69c1.159-0.939,3.889-3.89,1.52-7.34
					c-2.811-3.96-4.971-1.37-9-2.45c-4.18-1.079-4.18,0-5.189-3.39c-0.931-3.38,1.869-2.08,0.939-6.26
					c-2.45-10.94-11.52-8.93-14.11-6.84c-1.079,0.939-0.579,2.16,0.142,3.31c1.3,2.38,2.879,11.23,2.449,15.12
					c-0.51,4.54-2.02,3.75-4.109,8.5c-2.08,4.82-1.15,9.72-1.44,12.81l-17.28,22.471c-0.72-3.311-6.399-3.46-11.229-3.53
					L169.245,113.537z"/>
				<path d="M67.365,86.397c-7.34-1.15-9.93,0.569-10.58,2.95c-4.83-0.65-20.09,4.029-22.83,6.119
					c-2.73,2.091-3.88,11.091-4.32,13.46c-0.43,2.381-1.08-1.579-3.67,1.011c-2.52,2.589,0.58,2.31-1.01,3.67
					c-1.51,1.37-1.15-1-3.81,1.08c-2.74,2.02-1.08,1.589-3.31,3.96c-2.31,2.45-13.9-2.73-15.84-2.371
					c-1.88,0.291-3.39,6.411-0.15,7.63c3.311,1.22,11.31,2.81,14.04,3.31c-2.23,1.95-9.569,4.391-11.09,6.271
					c-1.58,1.939-3.09,4.75-2.229,5.76c0.79,1.08,4.18,1.94,8.5,1.94c4.32,0,7.34-6.771,10.44-5.181
					c3.09,1.511,0.72,11.66,0.65,13.891c0,2.229-0.51,4.39,3.09,4.39c3.67,0,3.53-0.64,5.11-4.68c1.52-4.03-0.57-12.601,2.6-14.9
					c3.09-2.229,2.23-2.74,5.04-1.51c2.73,1.15,0.36,2.3,3.67,3.96c8.57,4.32,11.95-2.45,12.09-8.5c0-2.95-2.73-3.17-3.81-3.17
					c-1.01,0-1.87,1.59-3.6,1.59c-1.8,0-3.53-1.37-6.12-3.82c-2.52-2.449-3.82-3.31-3.82-4.609c0-1.221,0.72,0.359,0.871-2.59
					c0.14-2.95-2.09-2.23-1.88-5.4c0.15-3.17,2.88-11.521,4.11-13.82c2.45-1.229,14.33-5.76,17.21-5.62
					c0.72,1.801,1.22,3.17,6.98,6.341l3.67-11.16L67.365,86.397z"/>
				<path fill="#FFFFFF" stroke="#000000" stroke-width="4.1316" stroke-miterlimit="2.6131" d="M123.165,3.376
					c-12.53,11.88-31.75,36.87-39.17,50.98c-7.48,14.109-18.36,37.87-22.82,54c-4.39,16.2-10.3,37.87-10.66,48.24
					c-0.36,10.369,0,17.779,7.42,17.42c7.49-0.36,5.76-4.101,23.54-12.811c17.79-8.79,27.36-11.24,46.73-6.7
					s24.12,21.53,31.391,20.811c7.279-0.72,12.029-14.979,11.959-39.891c0-24.909-18.15-64.439-22.32-74.88
					C145.125,50.176,130.584,17.487,123.165,3.376z"/>
				<path d="M123.165,4.966c-24.91,20.591-47.88,60.551-58.61,92.16c21.1-12.46,83.45-8.279,100.8,2.95
					C162.044,85.527,132.455,18.136,123.165,4.966z"/>
				<g>
					<g>
						<defs>
							<path id="XMLID_1_" d="M113.305,60.977c-17.86-0.36-29.81,11.59-29.74,27.43c0,15.84,12.82,24.92,28.08,24.12
								c15.27-0.79,31.83-10.8,31.03-25.771C141.814,71.777,131.154,61.336,113.305,60.977z"/>
						</defs>
						<clipPath id="XMLID_2_">
							<use xlink:href="#XMLID_1_" />
						</clipPath>
						<g>
							<path clip-path="url(#XMLID_2_)" fill="#A4001D" d="M113.305,60.977c-17.86-0.36-29.81,11.59-29.74,27.43
								c0,15.84,12.82,24.92,28.08,24.12c15.27-0.79,31.83-10.8,31.03-25.771C141.814,71.777,131.154,61.336,113.305,60.977z"/>
							<path clip-path="url(#XMLID_2_)" fill="#FFFFFF" d="M101.488,76.43h8.384c0-4.629-3.756-8.385-8.384-8.385
								c-4.628,0-8.384,3.756-8.384,8.385c0,4.628,3.756,8.384,8.384,8.384c4.628,0,8.384-3.756,8.384-8.384"/>
						</g>
					</g>
					<path fill="none" stroke="#000000" stroke-width="5.8167" stroke-linejoin="round" stroke-miterlimit="2.6131" d="
						M113.305,60.977c-17.86-0.36-29.81,11.59-29.74,27.43c0,15.84,12.82,24.92,28.08,24.12c15.27-0.79,31.83-10.8,31.03-25.771
						C141.814,71.777,131.154,61.336,113.305,60.977z"/>
				</g>
				
					<path fill="none" stroke="#666666" stroke-width="1.6606" stroke-linecap="round" stroke-linejoin="round" stroke-miterlimit="2.6131" d="
					M219.644,54.567c-3.74,0.291-15.049,0.51-12.17,7.28"/>
				
					<path fill="none" stroke="#666666" stroke-width="1.2978" stroke-linecap="round" stroke-linejoin="round" stroke-miterlimit="2.6131" d="
					M220.945,63.426c-11.67-0.939-16.631,2.16-12.6,6.98"/>
				
					<path fill="none" stroke="#666666" stroke-width="1.4801" stroke-linecap="round" stroke-linejoin="round" stroke-miterlimit="2.6131" d="
					M220.154,74.586c-3.959-1.729-14.549-4.25-13.25,2.88"/>
			</g>
		</g>
                <g id="tm">
                        <path d="M177.773,167.22v7.953h-1.813v-7.953h-1.531v-1.5h4.891v1.5H177.773z"/>
                        <path d="M186.568,175.173c0-0.813-0.017-1.627-0.05-2.444c-0.032-0.817-0.065-1.709-0.098-2.676
                                c-0.033-0.967-0.05-1.745-0.05-2.333l-1.615,7.453h-1.453l-1.511-7.448c-0.009,0.757-0.03,1.573-0.065,2.45
                                c-0.035,0.878-0.07,1.767-0.105,2.667c-0.035,0.901-0.053,1.678-0.053,2.331h-1.75c0-1.046,0.023-2.11,0.069-3.193
                                c0.047-1.083,0.091-1.888,0.133-2.416c0.042-0.527,0.146-1.809,0.314-3.844l2.502,0.001l1.347,6.409l1.421-6.409l2.352-0.001
                                c0.103,1.214,0.194,2.344,0.273,3.389c0.079,1.046,0.14,2.045,0.182,2.998c0.042,0.952,0.063,1.975,0.063,3.066H186.568z"/>
                </g>
        </g>
</svg>
